<?xml version="1.0" standalone="no"?>
<!DOCTYPE svg PUBLIC "-//W3C//DTD SVG 20010904//EN"
 "http://www.w3.org/TR/2001/REC-SVG-20010904/DTD/svg10.dtd">
<svg version="1.0" xmlns="http://www.w3.org/2000/svg"
 width="512.000000pt" height="512.000000pt" viewBox="0 0 512.000000 512.000000"
 preserveAspectRatio="xMidYMid meet">
<metadata>
Created by potrace 1.14, written by Peter Selinger 2001-2017
</metadata>
<g transform="translate(0.000000,512.000000) scale(0.100000,-0.100000)"
fill="#000000" stroke="none">
<path d="M0 2560 l0 -2560 2560 0 2560 0 0 2560 0 2560 -2560 0 -2560 0 0
-2560z m2954 1044 c84 -21 209 -84 279 -139 105 -83 192 -221 228 -362 18 -72
19 -115 19 -810 l0 -735 -29 -29 -29 -29 -950 0 c-1078 0 -1038 -3 -1202 78
-184 90 -322 270 -360 472 -6 34 -16 1328 -11 1491 1 15 13 38 27 53 l27 26
969 0 c848 0 978 -2 1032 -16z m1536 -63 c7 -13 10 -337 10 -981 0 -644 -3
-968 -10 -981 -6 -10 -18 -19 -28 -19 -9 0 -66 39 -127 86 -60 47 -132 102
-160 123 -157 120 -495 386 -521 411 -17 16 -34 43 -38 61 -3 17 -6 166 -6
331 0 251 3 305 16 333 9 19 48 58 92 92 42 33 183 142 312 243 449 351 437
343 460 301z"/>
<path d="M2120 3102 c-19 -9 -45 -32 -57 -51 -22 -33 -23 -42 -23 -251 l0
-218 -71 -4 c-65 -3 -74 -6 -100 -36 -23 -25 -29 -42 -29 -76 0 -39 13 -63
130 -237 71 -108 142 -202 157 -211 15 -10 46 -18 69 -18 53 0 70 18 223 245
104 156 121 186 121 221 0 73 -51 114 -145 114 l-55 0 0 211 c0 197 -1 214
-21 249 -40 71 -127 99 -199 62z"/>
</g>
</svg>
